<mxfile host="65bd71144e" pages="2">
    <diagram name="version 1.0" id="2ca16b54-16f6-2749-3443-fa8db7711227">
        <mxGraphModel dx="1112" dy="845" grid="1" gridSize="10" guides="1" tooltips="1" connect="1" arrows="1" fold="1" page="1" pageScale="1" pageWidth="1169" pageHeight="827" background="#EEEEEE" math="0" shadow="0">
            <root>
                <mxCell id="0"/>
                <mxCell id="1" parent="0"/>
                <mxCell id="y44rju-GEyB1Cl4UFM7f-4" value="&lt;div style=&quot;text-align: center; box-sizing: border-box; width: 100%; background: rgb(228, 228, 228); padding: 2px;&quot;&gt;&lt;b&gt;сотрудники&lt;/b&gt;&lt;/div&gt;&lt;table style=&quot;width:100%;font-size:1em;&quot; cellpadding=&quot;2&quot; cellspacing=&quot;0&quot;&gt;&lt;tbody&gt;&lt;tr&gt;&lt;td&gt;PK&lt;/td&gt;&lt;td&gt;uniqueId&lt;/td&gt;&lt;/tr&gt;&lt;tr&gt;&lt;td&gt;FK1&lt;br&gt;&lt;/td&gt;&lt;td&gt;foreignKey&lt;/td&gt;&lt;/tr&gt;&lt;tr&gt;&lt;td&gt;&lt;/td&gt;&lt;td&gt;фио&lt;br&gt;должность&lt;br&gt;табельный номер&lt;br&gt;уровень доступа&lt;br&gt;статус&lt;/td&gt;&lt;/tr&gt;&lt;/tbody&gt;&lt;/table&gt;" style="verticalAlign=top;align=left;overflow=fill;html=1;rounded=0;shadow=0;comic=0;labelBackgroundColor=none;strokeWidth=1;fontFamily=Verdana;fontSize=12;fillColor=#ffcd28;strokeColor=#d79b00;gradientColor=#ffa500;" parent="1" vertex="1">
                    <mxGeometry x="270" y="152.5" width="180" height="140" as="geometry"/>
                </mxCell>
                <mxCell id="y44rju-GEyB1Cl4UFM7f-5" value="&lt;div style=&quot;text-align: center; box-sizing: border-box; width: 100%; background: rgb(228, 228, 228); padding: 2px;&quot;&gt;&lt;b&gt;документация&lt;/b&gt;&lt;/div&gt;&lt;table style=&quot;width:100%;font-size:1em;&quot; cellpadding=&quot;2&quot; cellspacing=&quot;0&quot;&gt;&lt;tbody&gt;&lt;tr&gt;&lt;td&gt;PK&lt;/td&gt;&lt;td&gt;uniqueId&lt;/td&gt;&lt;/tr&gt;&lt;tr&gt;&lt;td&gt;FK1&lt;/td&gt;&lt;td&gt;foreignKey&lt;/td&gt;&lt;/tr&gt;&lt;tr&gt;&lt;td&gt;&lt;/td&gt;&lt;td&gt;название&lt;br&gt;тип&lt;br&gt;доступ&lt;br&gt;&lt;br&gt;&lt;br&gt;&lt;br&gt;&lt;br&gt;&lt;br&gt;&lt;br&gt;&lt;/td&gt;&lt;/tr&gt;&lt;/tbody&gt;&lt;/table&gt;" style="verticalAlign=top;align=left;overflow=fill;html=1;rounded=0;shadow=0;comic=0;labelBackgroundColor=none;strokeWidth=1;fontFamily=Verdana;fontSize=12;fillColor=#ffcd28;strokeColor=#d79b00;gradientColor=#ffa500;" parent="1" vertex="1">
                    <mxGeometry x="270" y="472.5" width="180" height="100" as="geometry"/>
                </mxCell>
                <mxCell id="y44rju-GEyB1Cl4UFM7f-8" value="&lt;div style=&quot;text-align: center; box-sizing: border-box; width: 100%; background: rgb(228, 228, 228); padding: 2px;&quot;&gt;&lt;b&gt;предприятия&lt;/b&gt;&lt;/div&gt;&lt;table style=&quot;width:100%;font-size:1em;&quot; cellpadding=&quot;2&quot; cellspacing=&quot;0&quot;&gt;&lt;tbody&gt;&lt;tr&gt;&lt;td&gt;PK&lt;/td&gt;&lt;td&gt;uniqueId&lt;/td&gt;&lt;/tr&gt;&lt;tr&gt;&lt;td&gt;FK1&lt;/td&gt;&lt;td&gt;foreignKey&lt;/td&gt;&lt;/tr&gt;&lt;tr&gt;&lt;td&gt;&lt;/td&gt;&lt;td&gt;отделы&lt;br&gt;&lt;br&gt;&lt;br&gt;&lt;/td&gt;&lt;/tr&gt;&lt;/tbody&gt;&lt;/table&gt;" style="verticalAlign=top;align=left;overflow=fill;html=1;rounded=0;shadow=0;comic=0;labelBackgroundColor=none;strokeWidth=1;fontFamily=Verdana;fontSize=12;fillColor=#ffcd28;strokeColor=#d79b00;gradientColor=#ffa500;" parent="1" vertex="1">
                    <mxGeometry x="30" y="32.5" width="180" height="80" as="geometry"/>
                </mxCell>
                <mxCell id="y44rju-GEyB1Cl4UFM7f-9" value="&lt;div style=&quot;text-align: center; box-sizing: border-box; width: 100%; background: rgb(228, 228, 228); padding: 2px;&quot;&gt;&lt;b&gt;отделы&lt;/b&gt;&lt;/div&gt;&lt;table style=&quot;width:100%;font-size:1em;&quot; cellpadding=&quot;2&quot; cellspacing=&quot;0&quot;&gt;&lt;tbody&gt;&lt;tr&gt;&lt;td&gt;PK&lt;/td&gt;&lt;td&gt;uniqueId&lt;/td&gt;&lt;/tr&gt;&lt;tr&gt;&lt;td&gt;FK1&lt;/td&gt;&lt;td&gt;foreignKey&lt;/td&gt;&lt;/tr&gt;&lt;tr&gt;&lt;td&gt;&lt;/td&gt;&lt;td&gt;обьект&lt;br&gt;сотрудники&lt;br&gt;&lt;br&gt;&lt;br&gt;&lt;br&gt;&lt;br&gt;&lt;/td&gt;&lt;/tr&gt;&lt;/tbody&gt;&lt;/table&gt;" style="verticalAlign=top;align=left;overflow=fill;html=1;rounded=0;shadow=0;comic=0;labelBackgroundColor=none;strokeWidth=1;fontFamily=Verdana;fontSize=12;fillColor=#ffcd28;strokeColor=#d79b00;gradientColor=#ffa500;" parent="1" vertex="1">
                    <mxGeometry x="30" y="152.5" width="180" height="90" as="geometry"/>
                </mxCell>
                <mxCell id="y44rju-GEyB1Cl4UFM7f-10" value="&lt;div style=&quot;text-align: center; box-sizing: border-box; width: 100%; background: rgb(228, 228, 228); padding: 2px;&quot;&gt;&lt;b&gt;оборудования&lt;/b&gt;&lt;/div&gt;&lt;table style=&quot;width:100%;font-size:1em;&quot; cellpadding=&quot;2&quot; cellspacing=&quot;0&quot;&gt;&lt;tbody&gt;&lt;tr&gt;&lt;td&gt;PK&lt;/td&gt;&lt;td&gt;uniqueId&lt;/td&gt;&lt;/tr&gt;&lt;tr&gt;&lt;td&gt;FK1&lt;/td&gt;&lt;td&gt;foreignKey&lt;br&gt;&lt;/td&gt;&lt;/tr&gt;&lt;tr&gt;&lt;td&gt;&lt;/td&gt;&lt;td&gt;название&lt;br&gt;тех.место&lt;br&gt;ед. оборудования&lt;br&gt;документация&lt;br&gt;&lt;br&gt;&lt;br&gt;&lt;br&gt;&lt;br&gt;&lt;br&gt;&lt;/td&gt;&lt;/tr&gt;&lt;/tbody&gt;&lt;/table&gt;" style="verticalAlign=top;align=left;overflow=fill;html=1;rounded=0;shadow=0;comic=0;labelBackgroundColor=none;strokeWidth=1;fontFamily=Verdana;fontSize=12;fillColor=#ffcd28;strokeColor=#d79b00;gradientColor=#ffa500;" parent="1" vertex="1">
                    <mxGeometry x="30" y="472.5" width="180" height="120" as="geometry"/>
                </mxCell>
                <mxCell id="y44rju-GEyB1Cl4UFM7f-11" value="&lt;div style=&quot;text-align: center; box-sizing: border-box; width: 100%; background: rgb(228, 228, 228); padding: 2px;&quot;&gt;&lt;b&gt;обьекты&lt;/b&gt;&lt;/div&gt;&lt;table style=&quot;width:100%;font-size:1em;&quot; cellpadding=&quot;2&quot; cellspacing=&quot;0&quot;&gt;&lt;tbody&gt;&lt;tr&gt;&lt;td&gt;PK&lt;/td&gt;&lt;td&gt;uniqueId&lt;/td&gt;&lt;/tr&gt;&lt;tr&gt;&lt;td&gt;FK1&lt;/td&gt;&lt;td&gt;foreignKey&lt;/td&gt;&lt;/tr&gt;&lt;tr&gt;&lt;td&gt;&lt;/td&gt;&lt;td&gt;название&lt;br&gt;местоположение&lt;br&gt;оборудование&lt;br&gt;&lt;br&gt;&lt;br&gt;&lt;br&gt;&lt;/td&gt;&lt;/tr&gt;&lt;/tbody&gt;&lt;/table&gt;" style="verticalAlign=top;align=left;overflow=fill;html=1;rounded=0;shadow=0;comic=0;labelBackgroundColor=none;strokeWidth=1;fontFamily=Verdana;fontSize=12;fillColor=#ffcd28;strokeColor=#d79b00;gradientColor=#ffa500;" parent="1" vertex="1">
                    <mxGeometry x="30" y="272.5" width="180" height="120" as="geometry"/>
                </mxCell>
                <mxCell id="y44rju-GEyB1Cl4UFM7f-13" value="&lt;div style=&quot;text-align: center; box-sizing: border-box; width: 100%; background: rgb(228, 228, 228); padding: 2px;&quot;&gt;&lt;b&gt;файлы документов&lt;/b&gt;&lt;/div&gt;&lt;table style=&quot;width:100%;font-size:1em;&quot; cellpadding=&quot;2&quot; cellspacing=&quot;0&quot;&gt;&lt;tbody&gt;&lt;tr&gt;&lt;td&gt;PK&lt;/td&gt;&lt;td&gt;uniqueId&lt;/td&gt;&lt;/tr&gt;&lt;tr&gt;&lt;td&gt;FK1&lt;/td&gt;&lt;td&gt;foreignKey&lt;/td&gt;&lt;/tr&gt;&lt;tr&gt;&lt;td&gt;&lt;/td&gt;&lt;td&gt;название&lt;br&gt;тип файла&lt;br&gt;файл&lt;br&gt;&lt;br&gt;&lt;br&gt;&lt;br&gt;&lt;br&gt;&lt;br&gt;&lt;/td&gt;&lt;/tr&gt;&lt;/tbody&gt;&lt;/table&gt;" style="verticalAlign=top;align=left;overflow=fill;html=1;rounded=0;shadow=0;comic=0;labelBackgroundColor=none;strokeWidth=1;fontFamily=Verdana;fontSize=12;fillColor=#ffcd28;strokeColor=#d79b00;gradientColor=#ffa500;" parent="1" vertex="1">
                    <mxGeometry x="500" y="632.5" width="180" height="110" as="geometry"/>
                </mxCell>
                <mxCell id="y44rju-GEyB1Cl4UFM7f-16" value="" style="edgeStyle=orthogonalEdgeStyle;html=1;endArrow=ERoneToMany;startArrow=ERmandOne;labelBackgroundColor=none;fontFamily=Verdana;fontSize=12;align=left;strokeColor=#182E3E;fontColor=#1A1A1A;exitX=0.5;exitY=1;exitDx=0;exitDy=0;" parent="1" source="y44rju-GEyB1Cl4UFM7f-8" edge="1">
                    <mxGeometry width="100" height="100" relative="1" as="geometry">
                        <mxPoint x="120" y="122.5" as="sourcePoint"/>
                        <mxPoint x="120" y="152.5" as="targetPoint"/>
                    </mxGeometry>
                </mxCell>
                <mxCell id="y44rju-GEyB1Cl4UFM7f-17" value="" style="edgeStyle=orthogonalEdgeStyle;html=1;endArrow=ERoneToMany;startArrow=ERmandOne;labelBackgroundColor=none;fontFamily=Verdana;fontSize=12;align=left;strokeColor=#182E3E;fontColor=#1A1A1A;entryX=0.5;entryY=0;entryDx=0;entryDy=0;exitX=0.5;exitY=1;exitDx=0;exitDy=0;" parent="1" source="y44rju-GEyB1Cl4UFM7f-9" target="y44rju-GEyB1Cl4UFM7f-11" edge="1">
                    <mxGeometry width="100" height="100" relative="1" as="geometry">
                        <mxPoint x="120" y="242.5" as="sourcePoint"/>
                        <mxPoint x="130" y="162.5" as="targetPoint"/>
                    </mxGeometry>
                </mxCell>
                <mxCell id="y44rju-GEyB1Cl4UFM7f-19" value="" style="edgeStyle=orthogonalEdgeStyle;html=1;endArrow=ERoneToMany;startArrow=ERmandOne;labelBackgroundColor=none;fontFamily=Verdana;fontSize=12;align=left;strokeColor=#182E3E;fontColor=#1A1A1A;entryX=0.5;entryY=0;entryDx=0;entryDy=0;" parent="1" source="y44rju-GEyB1Cl4UFM7f-11" target="y44rju-GEyB1Cl4UFM7f-10" edge="1">
                    <mxGeometry width="100" height="100" relative="1" as="geometry">
                        <mxPoint x="119.70000000000005" y="392.5" as="sourcePoint"/>
                        <mxPoint x="119.70000000000005" y="432.5" as="targetPoint"/>
                    </mxGeometry>
                </mxCell>
                <mxCell id="y44rju-GEyB1Cl4UFM7f-20" value="" style="edgeStyle=orthogonalEdgeStyle;html=1;endArrow=ERoneToMany;startArrow=ERmandOne;labelBackgroundColor=none;fontFamily=Verdana;fontSize=12;align=left;strokeColor=#182E3E;fontColor=#1A1A1A;exitX=0;exitY=0.545;exitDx=0;exitDy=0;exitPerimeter=0;" parent="1" source="y44rju-GEyB1Cl4UFM7f-5" edge="1">
                    <mxGeometry width="100" height="100" relative="1" as="geometry">
                        <mxPoint x="240.00000000000023" y="542.5" as="sourcePoint"/>
                        <mxPoint x="210" y="527.5" as="targetPoint"/>
                    </mxGeometry>
                </mxCell>
                <mxCell id="y44rju-GEyB1Cl4UFM7f-22" value="" style="edgeStyle=orthogonalEdgeStyle;html=1;endArrow=ERoneToMany;startArrow=ERmandOne;labelBackgroundColor=none;fontFamily=Verdana;fontSize=12;align=left;exitX=0;exitY=0.25;strokeColor=#182E3E;fontColor=#1A1A1A;exitDx=0;exitDy=0;" parent="1" source="y44rju-GEyB1Cl4UFM7f-4" edge="1">
                    <mxGeometry width="100" height="100" relative="1" as="geometry">
                        <mxPoint x="250" y="72.5" as="sourcePoint"/>
                        <mxPoint x="210" y="187.5" as="targetPoint"/>
                    </mxGeometry>
                </mxCell>
                <mxCell id="WJC-HQyoJEmewqS8XAre-3" value="&lt;div style=&quot;text-align: center; box-sizing: border-box; width: 100%; background: rgb(228, 228, 228); padding: 2px;&quot;&gt;&lt;b&gt;уровни доступа&lt;/b&gt;&lt;/div&gt;&lt;table style=&quot;width:100%;font-size:1em;&quot; cellpadding=&quot;2&quot; cellspacing=&quot;0&quot;&gt;&lt;tbody&gt;&lt;tr&gt;&lt;td&gt;PK&lt;/td&gt;&lt;td&gt;uniqueId&lt;/td&gt;&lt;/tr&gt;&lt;tr&gt;&lt;td&gt;FK1&lt;/td&gt;&lt;td&gt;foreignKey&lt;/td&gt;&lt;/tr&gt;&lt;tr&gt;&lt;td&gt;&lt;/td&gt;&lt;td&gt;тип доступа&lt;br&gt;&lt;br&gt;&lt;br&gt;&lt;br&gt;&lt;br&gt;&lt;br&gt;&lt;/td&gt;&lt;/tr&gt;&lt;/tbody&gt;&lt;/table&gt;" style="verticalAlign=top;align=left;overflow=fill;html=1;rounded=0;shadow=0;comic=0;labelBackgroundColor=none;strokeWidth=1;fontFamily=Verdana;fontSize=12;fillColor=#ffcd28;strokeColor=#d79b00;gradientColor=#ffa500;" parent="1" vertex="1">
                    <mxGeometry x="500" y="152.5" width="180" height="80" as="geometry"/>
                </mxCell>
                <mxCell id="WJC-HQyoJEmewqS8XAre-4" value="&lt;div style=&quot;text-align: center; box-sizing: border-box; width: 100%; background: rgb(228, 228, 228); padding: 2px;&quot;&gt;&lt;b&gt;типы доступа&lt;/b&gt;&lt;/div&gt;&lt;table style=&quot;width:100%;font-size:1em;&quot; cellpadding=&quot;2&quot; cellspacing=&quot;0&quot;&gt;&lt;tbody&gt;&lt;tr&gt;&lt;td&gt;PK&lt;/td&gt;&lt;td&gt;uniqueId&lt;/td&gt;&lt;/tr&gt;&lt;tr&gt;&lt;td&gt;FK1&lt;/td&gt;&lt;td&gt;foreignKey&lt;/td&gt;&lt;/tr&gt;&lt;tr&gt;&lt;td&gt;&lt;/td&gt;&lt;td&gt;название&lt;br&gt;ограничения&lt;br&gt;&lt;br&gt;&lt;br&gt;&lt;br&gt;&lt;br&gt;&lt;br&gt;&lt;/td&gt;&lt;/tr&gt;&lt;/tbody&gt;&lt;/table&gt;" style="verticalAlign=top;align=left;overflow=fill;html=1;rounded=0;shadow=0;comic=0;labelBackgroundColor=none;strokeWidth=1;fontFamily=Verdana;fontSize=12;fillColor=#ffcd28;strokeColor=#d79b00;gradientColor=#ffa500;" parent="1" vertex="1">
                    <mxGeometry x="720" y="152.5" width="180" height="100" as="geometry"/>
                </mxCell>
                <mxCell id="WJC-HQyoJEmewqS8XAre-5" value="&lt;div style=&quot;text-align: center; box-sizing: border-box; width: 100%; background: rgb(228, 228, 228); padding: 2px;&quot;&gt;&lt;b&gt;ограничения&lt;/b&gt;&lt;/div&gt;&lt;table style=&quot;width:100%;font-size:1em;&quot; cellpadding=&quot;2&quot; cellspacing=&quot;0&quot;&gt;&lt;tbody&gt;&lt;tr&gt;&lt;td&gt;PK&lt;/td&gt;&lt;td&gt;uniqueId&lt;/td&gt;&lt;/tr&gt;&lt;tr&gt;&lt;td&gt;FK1&lt;/td&gt;&lt;td&gt;foreignKey&lt;/td&gt;&lt;/tr&gt;&lt;tr&gt;&lt;td&gt;&lt;/td&gt;&lt;td&gt;редактирование&lt;br&gt;скачивание&lt;br&gt;чтение&lt;br&gt;&lt;br&gt;&lt;br&gt;&lt;br&gt;&lt;br&gt;&lt;br&gt;&lt;br&gt;&lt;/td&gt;&lt;/tr&gt;&lt;/tbody&gt;&lt;/table&gt;" style="verticalAlign=top;align=left;overflow=fill;html=1;rounded=0;shadow=0;comic=0;labelBackgroundColor=none;strokeWidth=1;fontFamily=Verdana;fontSize=12;fillColor=#ffcd28;strokeColor=#d79b00;gradientColor=#ffa500;" parent="1" vertex="1">
                    <mxGeometry x="950" y="152.5" width="180" height="100" as="geometry"/>
                </mxCell>
                <mxCell id="WJC-HQyoJEmewqS8XAre-9" value="" style="edgeStyle=orthogonalEdgeStyle;html=1;endArrow=ERoneToMany;startArrow=ERmandOne;labelBackgroundColor=none;fontFamily=Verdana;fontSize=12;align=left;exitX=-0.006;exitY=0.433;entryX=1;entryY=0.25;strokeColor=#182E3E;fontColor=#1A1A1A;entryDx=0;entryDy=0;exitDx=0;exitDy=0;exitPerimeter=0;" parent="1" source="WJC-HQyoJEmewqS8XAre-3" target="y44rju-GEyB1Cl4UFM7f-4" edge="1">
                    <mxGeometry width="100" height="100" relative="1" as="geometry">
                        <mxPoint x="630" y="282.5" as="sourcePoint"/>
                        <mxPoint x="520" y="292.5" as="targetPoint"/>
                    </mxGeometry>
                </mxCell>
                <mxCell id="WJC-HQyoJEmewqS8XAre-10" value="" style="edgeStyle=orthogonalEdgeStyle;html=1;endArrow=ERoneToMany;startArrow=ERmandOne;labelBackgroundColor=none;fontFamily=Verdana;fontSize=12;align=left;exitX=-0.013;exitY=0.338;entryX=1.008;entryY=0.417;strokeColor=#182E3E;fontColor=#1A1A1A;entryDx=0;entryDy=0;exitDx=0;exitDy=0;exitPerimeter=0;entryPerimeter=0;" parent="1" source="WJC-HQyoJEmewqS8XAre-4" target="WJC-HQyoJEmewqS8XAre-3" edge="1">
                    <mxGeometry width="100" height="100" relative="1" as="geometry">
                        <mxPoint x="800" y="292.5" as="sourcePoint"/>
                        <mxPoint x="690" y="302.5" as="targetPoint"/>
                    </mxGeometry>
                </mxCell>
                <mxCell id="WJC-HQyoJEmewqS8XAre-11" value="" style="edgeStyle=orthogonalEdgeStyle;html=1;endArrow=ERoneToMany;startArrow=ERmandOne;labelBackgroundColor=none;fontFamily=Verdana;fontSize=12;align=left;exitX=-0.012;exitY=0.399;entryX=0.999;entryY=0.392;strokeColor=#182E3E;fontColor=#1A1A1A;entryDx=0;entryDy=0;exitDx=0;exitDy=0;entryPerimeter=0;exitPerimeter=0;" parent="1" source="WJC-HQyoJEmewqS8XAre-5" target="WJC-HQyoJEmewqS8XAre-4" edge="1">
                    <mxGeometry width="100" height="100" relative="1" as="geometry">
                        <mxPoint x="960" y="307.5000000000001" as="sourcePoint"/>
                        <mxPoint x="920" y="302.5" as="targetPoint"/>
                        <Array as="points">
                            <mxPoint x="900" y="192.5"/>
                        </Array>
                    </mxGeometry>
                </mxCell>
                <mxCell id="WJC-HQyoJEmewqS8XAre-13" value="&lt;div style=&quot;text-align: center; box-sizing: border-box; width: 100%; background: rgb(228, 228, 228); padding: 2px;&quot;&gt;&lt;b&gt;типы документов&lt;/b&gt;&lt;/div&gt;&lt;table style=&quot;width:100%;font-size:1em;&quot; cellpadding=&quot;2&quot; cellspacing=&quot;0&quot;&gt;&lt;tbody&gt;&lt;tr&gt;&lt;td&gt;PK&lt;/td&gt;&lt;td&gt;uniqueId&lt;/td&gt;&lt;/tr&gt;&lt;tr&gt;&lt;td&gt;FK1&lt;/td&gt;&lt;td&gt;foreignKey&lt;/td&gt;&lt;/tr&gt;&lt;tr&gt;&lt;td&gt;&lt;/td&gt;&lt;td&gt;название&lt;br&gt;форма&lt;br&gt;файл&lt;br&gt;вложение&lt;br&gt;&lt;br&gt;&lt;br&gt;&lt;br&gt;&lt;br&gt;&lt;br&gt;&lt;br&gt;&lt;/td&gt;&lt;/tr&gt;&lt;/tbody&gt;&lt;/table&gt;" style="verticalAlign=top;align=left;overflow=fill;html=1;rounded=0;shadow=0;comic=0;labelBackgroundColor=none;strokeWidth=1;fontFamily=Verdana;fontSize=12;fillColor=#ffcd28;strokeColor=#d79b00;gradientColor=#ffa500;" parent="1" vertex="1">
                    <mxGeometry x="500" y="472.5" width="180" height="120" as="geometry"/>
                </mxCell>
                <mxCell id="WJC-HQyoJEmewqS8XAre-14" value="&lt;div style=&quot;text-align: center; box-sizing: border-box; width: 100%; background: rgb(228, 228, 228); padding: 2px;&quot;&gt;&lt;b&gt;вложения&lt;/b&gt;&lt;/div&gt;&lt;table style=&quot;width:100%;font-size:1em;&quot; cellpadding=&quot;2&quot; cellspacing=&quot;0&quot;&gt;&lt;tbody&gt;&lt;tr&gt;&lt;td&gt;PK&lt;/td&gt;&lt;td&gt;uniqueId&lt;/td&gt;&lt;/tr&gt;&lt;tr&gt;&lt;td&gt;FK1&lt;/td&gt;&lt;td&gt;foreignKey&lt;/td&gt;&lt;/tr&gt;&lt;tr&gt;&lt;td&gt;&lt;/td&gt;&lt;td&gt;название&lt;br&gt;тип вложения&lt;br&gt;&lt;br&gt;&lt;br&gt;&lt;br&gt;&lt;br&gt;&lt;br&gt;&lt;br&gt;&lt;br&gt;&lt;/td&gt;&lt;/tr&gt;&lt;/tbody&gt;&lt;/table&gt;" style="verticalAlign=top;align=left;overflow=fill;html=1;rounded=0;shadow=0;comic=0;labelBackgroundColor=none;strokeWidth=1;fontFamily=Verdana;fontSize=12;fillColor=#ffcd28;strokeColor=#d79b00;gradientColor=#ffa500;" parent="1" vertex="1">
                    <mxGeometry x="730" y="472.5" width="180" height="90" as="geometry"/>
                </mxCell>
                <mxCell id="WJC-HQyoJEmewqS8XAre-15" value="&lt;div style=&quot;text-align: center; box-sizing: border-box; width: 100%; background: rgb(228, 228, 228); padding: 2px;&quot;&gt;&lt;b&gt;типы вложений&lt;/b&gt;&lt;/div&gt;&lt;table style=&quot;width:100%;font-size:1em;&quot; cellpadding=&quot;2&quot; cellspacing=&quot;0&quot;&gt;&lt;tbody&gt;&lt;tr&gt;&lt;td&gt;PK&lt;/td&gt;&lt;td&gt;uniqueId&lt;/td&gt;&lt;/tr&gt;&lt;tr&gt;&lt;td&gt;FK1&lt;/td&gt;&lt;td&gt;foreignKey&lt;/td&gt;&lt;/tr&gt;&lt;tr&gt;&lt;td&gt;&lt;/td&gt;&lt;td&gt;название&lt;br&gt;файлы&lt;br&gt;&lt;br&gt;&lt;br&gt;&lt;br&gt;&lt;br&gt;&lt;br&gt;&lt;br&gt;&lt;br&gt;&lt;/td&gt;&lt;/tr&gt;&lt;/tbody&gt;&lt;/table&gt;" style="verticalAlign=top;align=left;overflow=fill;html=1;rounded=0;shadow=0;comic=0;labelBackgroundColor=none;strokeWidth=1;fontFamily=Verdana;fontSize=12;fillColor=#ffcd28;strokeColor=#d79b00;gradientColor=#ffa500;" parent="1" vertex="1">
                    <mxGeometry x="960" y="472.5" width="180" height="90" as="geometry"/>
                </mxCell>
                <mxCell id="WJC-HQyoJEmewqS8XAre-17" value="&lt;div style=&quot;text-align: center; box-sizing: border-box; width: 100%; background: rgb(228, 228, 228); padding: 2px;&quot;&gt;&lt;b&gt;файлы вложений&lt;/b&gt;&lt;/div&gt;&lt;table style=&quot;width:100%;font-size:1em;&quot; cellpadding=&quot;2&quot; cellspacing=&quot;0&quot;&gt;&lt;tbody&gt;&lt;tr&gt;&lt;td&gt;PK&lt;/td&gt;&lt;td&gt;uniqueId&lt;/td&gt;&lt;/tr&gt;&lt;tr&gt;&lt;td&gt;FK1&lt;/td&gt;&lt;td&gt;foreignKey&lt;/td&gt;&lt;/tr&gt;&lt;tr&gt;&lt;td&gt;&lt;/td&gt;&lt;td&gt;название&lt;br&gt;тип файла&lt;br&gt;файл&lt;br&gt;&lt;br&gt;&lt;br&gt;&lt;br&gt;&lt;br&gt;&lt;br&gt;&lt;/td&gt;&lt;/tr&gt;&lt;/tbody&gt;&lt;/table&gt;" style="verticalAlign=top;align=left;overflow=fill;html=1;rounded=0;shadow=0;comic=0;labelBackgroundColor=none;strokeWidth=1;fontFamily=Verdana;fontSize=12;fillColor=#ffcd28;strokeColor=#d79b00;gradientColor=#ffa500;" parent="1" vertex="1">
                    <mxGeometry x="1180" y="472.5" width="180" height="110" as="geometry"/>
                </mxCell>
                <mxCell id="WJC-HQyoJEmewqS8XAre-18" value="" style="edgeStyle=orthogonalEdgeStyle;html=1;endArrow=ERoneToMany;startArrow=ERmandOne;labelBackgroundColor=none;fontFamily=Verdana;fontSize=12;align=left;strokeColor=#182E3E;fontColor=#1A1A1A;entryX=1;entryY=0.5;entryDx=0;entryDy=0;exitX=-0.009;exitY=0.419;exitDx=0;exitDy=0;exitPerimeter=0;" parent="1" source="WJC-HQyoJEmewqS8XAre-13" target="y44rju-GEyB1Cl4UFM7f-5" edge="1">
                    <mxGeometry width="100" height="100" relative="1" as="geometry">
                        <mxPoint x="280" y="531.55" as="sourcePoint"/>
                        <mxPoint x="219.0999999999999" y="530.7399999999998" as="targetPoint"/>
                    </mxGeometry>
                </mxCell>
                <mxCell id="WJC-HQyoJEmewqS8XAre-19" value="" style="edgeStyle=orthogonalEdgeStyle;html=1;endArrow=ERoneToMany;startArrow=ERmandOne;labelBackgroundColor=none;fontFamily=Verdana;fontSize=12;align=left;strokeColor=#182E3E;fontColor=#1A1A1A;entryX=1.015;entryY=0.376;entryDx=0;entryDy=0;exitX=0;exitY=0.5;exitDx=0;exitDy=0;entryPerimeter=0;" parent="1" source="WJC-HQyoJEmewqS8XAre-14" target="WJC-HQyoJEmewqS8XAre-13" edge="1">
                    <mxGeometry width="100" height="100" relative="1" as="geometry">
                        <mxPoint x="805.3199999999999" y="612.6199999999999" as="sourcePoint"/>
                        <mxPoint x="760" y="612.5" as="targetPoint"/>
                    </mxGeometry>
                </mxCell>
                <mxCell id="WJC-HQyoJEmewqS8XAre-23" value="" style="edgeStyle=orthogonalEdgeStyle;html=1;endArrow=ERoneToMany;startArrow=ERmandOne;labelBackgroundColor=none;fontFamily=Verdana;fontSize=12;align=left;strokeColor=#182E3E;fontColor=#1A1A1A;entryX=0.5;entryY=1;entryDx=0;entryDy=0;exitX=0.5;exitY=0;exitDx=0;exitDy=0;" parent="1" source="y44rju-GEyB1Cl4UFM7f-13" target="WJC-HQyoJEmewqS8XAre-13" edge="1">
                    <mxGeometry width="100" height="100" relative="1" as="geometry">
                        <mxPoint x="740" y="527.5" as="sourcePoint"/>
                        <mxPoint x="692.7" y="527.6199999999999" as="targetPoint"/>
                    </mxGeometry>
                </mxCell>
                <mxCell id="WJC-HQyoJEmewqS8XAre-26" value="" style="edgeStyle=orthogonalEdgeStyle;html=1;endArrow=ERoneToMany;startArrow=ERmandOne;labelBackgroundColor=none;fontFamily=Verdana;fontSize=12;align=left;strokeColor=#182E3E;fontColor=#1A1A1A;entryX=1;entryY=0.5;entryDx=0;entryDy=0;exitX=0;exitY=0.5;exitDx=0;exitDy=0;" parent="1" source="WJC-HQyoJEmewqS8XAre-15" target="WJC-HQyoJEmewqS8XAre-14" edge="1">
                    <mxGeometry width="100" height="100" relative="1" as="geometry">
                        <mxPoint x="740" y="527.5" as="sourcePoint"/>
                        <mxPoint x="692.7" y="527.6199999999999" as="targetPoint"/>
                    </mxGeometry>
                </mxCell>
                <mxCell id="WJC-HQyoJEmewqS8XAre-27" value="" style="edgeStyle=orthogonalEdgeStyle;html=1;endArrow=ERoneToMany;startArrow=ERmandOne;labelBackgroundColor=none;fontFamily=Verdana;fontSize=12;align=left;strokeColor=#182E3E;fontColor=#1A1A1A;entryX=1;entryY=0.5;entryDx=0;entryDy=0;exitX=-0.008;exitY=0.4;exitDx=0;exitDy=0;exitPerimeter=0;" parent="1" source="WJC-HQyoJEmewqS8XAre-17" target="WJC-HQyoJEmewqS8XAre-15" edge="1">
                    <mxGeometry width="100" height="100" relative="1" as="geometry">
                        <mxPoint x="970" y="527.5" as="sourcePoint"/>
                        <mxPoint x="920" y="527.5" as="targetPoint"/>
                    </mxGeometry>
                </mxCell>
                <mxCell id="WJC-HQyoJEmewqS8XAre-35" value="&lt;div style=&quot;text-align: center; box-sizing: border-box; width: 100%; background: rgb(228, 228, 228); padding: 2px;&quot;&gt;&lt;b&gt;редактирование&lt;/b&gt;&lt;/div&gt;&lt;table style=&quot;width:100%;font-size:1em;&quot; cellpadding=&quot;2&quot; cellspacing=&quot;0&quot;&gt;&lt;tbody&gt;&lt;tr&gt;&lt;td&gt;PK&lt;/td&gt;&lt;td&gt;uniqueId&lt;/td&gt;&lt;/tr&gt;&lt;tr&gt;&lt;td&gt;FK1&lt;/td&gt;&lt;td&gt;foreignKey&lt;/td&gt;&lt;/tr&gt;&lt;tr&gt;&lt;td&gt;&lt;/td&gt;&lt;td&gt;документация&lt;br&gt;статус&lt;br&gt;&lt;br&gt;&lt;br&gt;&lt;br&gt;&lt;br&gt;&lt;br&gt;&lt;br&gt;&lt;br&gt;&lt;/td&gt;&lt;/tr&gt;&lt;/tbody&gt;&lt;/table&gt;" style="verticalAlign=top;align=left;overflow=fill;html=1;rounded=0;shadow=0;comic=0;labelBackgroundColor=none;strokeWidth=1;fontFamily=Verdana;fontSize=12;fillColor=#ffcd28;strokeColor=#d79b00;gradientColor=#ffa500;" parent="1" vertex="1">
                    <mxGeometry x="1180" y="30" width="180" height="90" as="geometry"/>
                </mxCell>
                <mxCell id="WJC-HQyoJEmewqS8XAre-36" value="&lt;div style=&quot;text-align: center; box-sizing: border-box; width: 100%; background: rgb(228, 228, 228); padding: 2px;&quot;&gt;&lt;b&gt;чтение&lt;/b&gt;&lt;/div&gt;&lt;table style=&quot;width:100%;font-size:1em;&quot; cellpadding=&quot;2&quot; cellspacing=&quot;0&quot;&gt;&lt;tbody&gt;&lt;tr&gt;&lt;td&gt;PK&lt;/td&gt;&lt;td&gt;uniqueId&lt;/td&gt;&lt;/tr&gt;&lt;tr&gt;&lt;td&gt;FK1&lt;/td&gt;&lt;td&gt;foreignKey&lt;/td&gt;&lt;/tr&gt;&lt;tr&gt;&lt;td&gt;&lt;/td&gt;&lt;td&gt;документация&lt;br&gt;статус&lt;br&gt;&lt;br&gt;&lt;br&gt;&lt;br&gt;&lt;br&gt;&lt;br&gt;&lt;br&gt;&lt;br&gt;&lt;/td&gt;&lt;/tr&gt;&lt;/tbody&gt;&lt;/table&gt;" style="verticalAlign=top;align=left;overflow=fill;html=1;rounded=0;shadow=0;comic=0;labelBackgroundColor=none;strokeWidth=1;fontFamily=Verdana;fontSize=12;fillColor=#ffcd28;strokeColor=#d79b00;gradientColor=#ffa500;" parent="1" vertex="1">
                    <mxGeometry x="1180" y="150" width="180" height="90" as="geometry"/>
                </mxCell>
                <mxCell id="WJC-HQyoJEmewqS8XAre-37" value="&lt;div style=&quot;text-align: center; box-sizing: border-box; width: 100%; background: rgb(228, 228, 228); padding: 2px;&quot;&gt;&lt;b&gt;скачивание&lt;/b&gt;&lt;/div&gt;&lt;table style=&quot;width:100%;font-size:1em;&quot; cellpadding=&quot;2&quot; cellspacing=&quot;0&quot;&gt;&lt;tbody&gt;&lt;tr&gt;&lt;td&gt;PK&lt;/td&gt;&lt;td&gt;uniqueId&lt;/td&gt;&lt;/tr&gt;&lt;tr&gt;&lt;td&gt;FK1&lt;/td&gt;&lt;td&gt;foreignKey&lt;/td&gt;&lt;/tr&gt;&lt;tr&gt;&lt;td&gt;&lt;/td&gt;&lt;td&gt;документация&lt;br&gt;статус&lt;br&gt;&lt;br&gt;&lt;br&gt;&lt;br&gt;&lt;br&gt;&lt;br&gt;&lt;br&gt;&lt;br&gt;&lt;/td&gt;&lt;/tr&gt;&lt;/tbody&gt;&lt;/table&gt;" style="verticalAlign=top;align=left;overflow=fill;html=1;rounded=0;shadow=0;comic=0;labelBackgroundColor=none;strokeWidth=1;fontFamily=Verdana;fontSize=12;fillColor=#ffcd28;strokeColor=#d79b00;gradientColor=#ffa500;" parent="1" vertex="1">
                    <mxGeometry x="1180" y="287.5" width="180" height="90" as="geometry"/>
                </mxCell>
                <mxCell id="WJC-HQyoJEmewqS8XAre-38" value="" style="edgeStyle=orthogonalEdgeStyle;html=1;endArrow=ERoneToMany;startArrow=ERmandOne;labelBackgroundColor=none;fontFamily=Verdana;fontSize=12;align=left;exitX=0.002;exitY=0.58;entryX=1;entryY=0.5;strokeColor=#182E3E;fontColor=#1A1A1A;entryDx=0;entryDy=0;exitDx=0;exitDy=0;exitPerimeter=0;" parent="1" source="WJC-HQyoJEmewqS8XAre-36" target="WJC-HQyoJEmewqS8XAre-5" edge="1">
                    <mxGeometry width="100" height="100" relative="1" as="geometry">
                        <mxPoint x="957.8399999999999" y="202.39999999999998" as="sourcePoint"/>
                        <mxPoint x="909.8199999999999" y="201.69999999999993" as="targetPoint"/>
                        <Array as="points"/>
                    </mxGeometry>
                </mxCell>
                <mxCell id="WJC-HQyoJEmewqS8XAre-40" value="" style="edgeStyle=orthogonalEdgeStyle;html=1;endArrow=ERoneToMany;startArrow=ERmandOne;labelBackgroundColor=none;fontFamily=Verdana;fontSize=12;align=left;exitX=0;exitY=0.5;entryX=1;entryY=0.5;strokeColor=#182E3E;fontColor=#1A1A1A;entryDx=0;entryDy=0;exitDx=0;exitDy=0;" parent="1" source="WJC-HQyoJEmewqS8XAre-35" target="WJC-HQyoJEmewqS8XAre-5" edge="1">
                    <mxGeometry width="100" height="100" relative="1" as="geometry">
                        <mxPoint x="1190.3600000000001" y="212.19999999999993" as="sourcePoint"/>
                        <mxPoint x="1140" y="212.5" as="targetPoint"/>
                        <Array as="points"/>
                    </mxGeometry>
                </mxCell>
                <mxCell id="WJC-HQyoJEmewqS8XAre-42" value="" style="edgeStyle=orthogonalEdgeStyle;html=1;endArrow=ERoneToMany;startArrow=ERmandOne;labelBackgroundColor=none;fontFamily=Verdana;fontSize=12;align=left;exitX=0;exitY=0.5;entryX=1;entryY=0.5;strokeColor=#182E3E;fontColor=#1A1A1A;entryDx=0;entryDy=0;exitDx=0;exitDy=0;" parent="1" source="WJC-HQyoJEmewqS8XAre-37" target="WJC-HQyoJEmewqS8XAre-5" edge="1">
                    <mxGeometry width="100" height="100" relative="1" as="geometry">
                        <mxPoint x="1190.36" y="212.20000000000005" as="sourcePoint"/>
                        <mxPoint x="1140" y="212.5" as="targetPoint"/>
                        <Array as="points"/>
                    </mxGeometry>
                </mxCell>
                <mxCell id="WJC-HQyoJEmewqS8XAre-45" value="" style="edgeStyle=orthogonalEdgeStyle;html=1;endArrow=ERoneToMany;startArrow=ERoneToMany;labelBackgroundColor=none;fontFamily=Verdana;fontSize=12;align=left;exitX=1;exitY=0.5;entryX=1;entryY=0.5;strokeColor=#182E3E;fontColor=#1A1A1A;entryDx=0;entryDy=0;exitDx=0;exitDy=0;startFill=0;" parent="1" source="WJC-HQyoJEmewqS8XAre-35" target="WJC-HQyoJEmewqS8XAre-36" edge="1">
                    <mxGeometry width="100" height="100" relative="1" as="geometry">
                        <mxPoint x="1470" y="73.75" as="sourcePoint"/>
                        <mxPoint x="1420" y="201.25" as="targetPoint"/>
                        <Array as="points">
                            <mxPoint x="1390" y="75.5"/>
                            <mxPoint x="1390" y="195.5"/>
                        </Array>
                    </mxGeometry>
                </mxCell>
                <mxCell id="WJC-HQyoJEmewqS8XAre-46" value="" style="edgeStyle=orthogonalEdgeStyle;html=1;endArrow=ERoneToMany;startArrow=ERoneToMany;labelBackgroundColor=none;fontFamily=Verdana;fontSize=12;align=left;exitX=1;exitY=0.5;entryX=1;entryY=0.5;strokeColor=#182E3E;fontColor=#1A1A1A;entryDx=0;entryDy=0;exitDx=0;exitDy=0;startFill=0;" parent="1" source="WJC-HQyoJEmewqS8XAre-37" target="WJC-HQyoJEmewqS8XAre-36" edge="1">
                    <mxGeometry width="100" height="100" relative="1" as="geometry">
                        <mxPoint x="1470" y="331.25" as="sourcePoint"/>
                        <mxPoint x="1420" y="201.25" as="targetPoint"/>
                        <Array as="points">
                            <mxPoint x="1390" y="332.5"/>
                            <mxPoint x="1390" y="195.5"/>
                        </Array>
                    </mxGeometry>
                </mxCell>
                <mxCell id="WJC-HQyoJEmewqS8XAre-48" value="" style="edgeStyle=orthogonalEdgeStyle;html=1;endArrow=ERoneToMany;startArrow=ERmandOne;labelBackgroundColor=none;fontFamily=Verdana;fontSize=12;align=left;exitX=0.5;exitY=0;entryX=1;entryY=0.5;strokeColor=#182E3E;fontColor=#1A1A1A;entryDx=0;entryDy=0;exitDx=0;exitDy=0;" parent="1" source="y44rju-GEyB1Cl4UFM7f-5" target="WJC-HQyoJEmewqS8XAre-36" edge="1">
                    <mxGeometry width="100" height="100" relative="1" as="geometry">
                        <mxPoint x="1478.0599999999997" y="202.82999999999998" as="sourcePoint"/>
                        <mxPoint x="1430.04" y="202.13000000000005" as="targetPoint"/>
                        <Array as="points">
                            <mxPoint x="360" y="422.5"/>
                            <mxPoint x="1430" y="422.5"/>
                            <mxPoint x="1430" y="195.5"/>
                        </Array>
                    </mxGeometry>
                </mxCell>
            </root>
        </mxGraphModel>
    </diagram>
    <diagram id="-pTfKT9xz9sAhYibxtFW" name="version 1.1">
        <mxGraphModel dx="945" dy="718" grid="1" gridSize="10" guides="1" tooltips="1" connect="1" arrows="1" fold="1" page="1" pageScale="1" pageWidth="1169" pageHeight="827" math="0" shadow="0">
            <root>
                <mxCell id="0"/>
                <mxCell id="1" parent="0"/>
                <mxCell id="Kqv4kzfCjA-99ceuHCYo-1" value="&lt;div style=&quot;text-align: center; box-sizing: border-box; width: 100%; background: rgb(228, 228, 228); padding: 2px;&quot;&gt;&lt;b&gt;сотрудники&lt;/b&gt;&lt;/div&gt;&lt;table style=&quot;width:100%;font-size:1em;&quot; cellpadding=&quot;2&quot; cellspacing=&quot;0&quot;&gt;&lt;tbody&gt;&lt;tr&gt;&lt;td&gt;PK&lt;/td&gt;&lt;td&gt;uniqueId&lt;/td&gt;&lt;/tr&gt;&lt;tr&gt;&lt;td&gt;FK1&lt;br&gt;&lt;/td&gt;&lt;td&gt;foreignKey&lt;/td&gt;&lt;/tr&gt;&lt;tr&gt;&lt;td&gt;&lt;/td&gt;&lt;td&gt;фио&lt;br&gt;должность&lt;br&gt;табельный номер&lt;br&gt;уровень доступа&lt;br&gt;статус&lt;/td&gt;&lt;/tr&gt;&lt;/tbody&gt;&lt;/table&gt;" style="verticalAlign=top;align=left;overflow=fill;html=1;rounded=0;shadow=0;comic=0;labelBackgroundColor=none;strokeWidth=1;fontFamily=Verdana;fontSize=12;fillColor=#ffcd28;strokeColor=#d79b00;gradientColor=#ffa500;" parent="1" vertex="1">
                    <mxGeometry x="600" y="313.75" width="180" height="140" as="geometry"/>
                </mxCell>
                <mxCell id="Kqv4kzfCjA-99ceuHCYo-2" value="&lt;div style=&quot;text-align: center; box-sizing: border-box; width: 100%; background: rgb(228, 228, 228); padding: 2px;&quot;&gt;&lt;b&gt;документация&lt;/b&gt;&lt;/div&gt;&lt;table style=&quot;width:100%;font-size:1em;&quot; cellpadding=&quot;2&quot; cellspacing=&quot;0&quot;&gt;&lt;tbody&gt;&lt;tr&gt;&lt;td&gt;PK&lt;/td&gt;&lt;td&gt;uniqueId&lt;/td&gt;&lt;/tr&gt;&lt;tr&gt;&lt;td&gt;FK1&lt;/td&gt;&lt;td&gt;foreignKey&lt;/td&gt;&lt;/tr&gt;&lt;tr&gt;&lt;td&gt;&lt;/td&gt;&lt;td&gt;название&lt;br&gt;тип&lt;br&gt;&lt;br&gt;&lt;br&gt;&lt;br&gt;&lt;br&gt;&lt;br&gt;&lt;br&gt;&lt;/td&gt;&lt;/tr&gt;&lt;/tbody&gt;&lt;/table&gt;" style="verticalAlign=top;align=left;overflow=fill;html=1;rounded=0;shadow=0;comic=0;labelBackgroundColor=none;strokeWidth=1;fontFamily=Verdana;fontSize=12;fillColor=#ffcd28;strokeColor=#d79b00;gradientColor=#ffa500;" parent="1" vertex="1">
                    <mxGeometry x="1120" y="90" width="180" height="90" as="geometry"/>
                </mxCell>
                <mxCell id="Kqv4kzfCjA-99ceuHCYo-3" value="&lt;div style=&quot;text-align: center; box-sizing: border-box; width: 100%; background: rgb(228, 228, 228); padding: 2px;&quot;&gt;&lt;b&gt;предприятия&lt;/b&gt;&lt;/div&gt;&lt;table style=&quot;width:100%;font-size:1em;&quot; cellpadding=&quot;2&quot; cellspacing=&quot;0&quot;&gt;&lt;tbody&gt;&lt;tr&gt;&lt;td&gt;PK&lt;/td&gt;&lt;td&gt;uniqueId&lt;/td&gt;&lt;/tr&gt;&lt;tr&gt;&lt;td&gt;FK1&lt;/td&gt;&lt;td&gt;foreignKey&lt;/td&gt;&lt;/tr&gt;&lt;tr&gt;&lt;td&gt;&lt;/td&gt;&lt;td&gt;название&lt;br&gt;&lt;br&gt;&lt;br&gt;&lt;/td&gt;&lt;/tr&gt;&lt;/tbody&gt;&lt;/table&gt;" style="verticalAlign=top;align=left;overflow=fill;html=1;rounded=0;shadow=0;comic=0;labelBackgroundColor=none;strokeWidth=1;fontFamily=Verdana;fontSize=12;fillColor=#ffcd28;strokeColor=#d79b00;gradientColor=#ffa500;" parent="1" vertex="1">
                    <mxGeometry x="30" y="90" width="180" height="80" as="geometry"/>
                </mxCell>
                <mxCell id="Kqv4kzfCjA-99ceuHCYo-4" value="&lt;div style=&quot;text-align: center; box-sizing: border-box; width: 100%; background: rgb(228, 228, 228); padding: 2px;&quot;&gt;&lt;b&gt;отделы&lt;/b&gt;&lt;/div&gt;&lt;table style=&quot;width:100%;font-size:1em;&quot; cellpadding=&quot;2&quot; cellspacing=&quot;0&quot;&gt;&lt;tbody&gt;&lt;tr&gt;&lt;td&gt;PK&lt;/td&gt;&lt;td&gt;uniqueId&lt;/td&gt;&lt;/tr&gt;&lt;tr&gt;&lt;td&gt;FK1&lt;/td&gt;&lt;td&gt;foreignKey&lt;/td&gt;&lt;/tr&gt;&lt;tr&gt;&lt;td&gt;&lt;/td&gt;&lt;td&gt;предприятие&lt;br&gt;сотрудники&lt;br&gt;&lt;br&gt;&lt;br&gt;&lt;br&gt;&lt;br&gt;&lt;/td&gt;&lt;/tr&gt;&lt;/tbody&gt;&lt;/table&gt;" style="verticalAlign=top;align=left;overflow=fill;html=1;rounded=0;shadow=0;comic=0;labelBackgroundColor=none;strokeWidth=1;fontFamily=Verdana;fontSize=12;fillColor=#ffcd28;strokeColor=#d79b00;gradientColor=#ffa500;" parent="1" vertex="1">
                    <mxGeometry x="30" y="210" width="180" height="90" as="geometry"/>
                </mxCell>
                <mxCell id="Kqv4kzfCjA-99ceuHCYo-5" value="&lt;div style=&quot;text-align: center; box-sizing: border-box; width: 100%; background: rgb(228, 228, 228); padding: 2px;&quot;&gt;&lt;b&gt;оборудования&lt;/b&gt;&lt;/div&gt;&lt;table style=&quot;width:100%;font-size:1em;&quot; cellpadding=&quot;2&quot; cellspacing=&quot;0&quot;&gt;&lt;tbody&gt;&lt;tr&gt;&lt;td&gt;PK&lt;/td&gt;&lt;td&gt;uniqueId&lt;/td&gt;&lt;/tr&gt;&lt;tr&gt;&lt;td&gt;FK1&lt;/td&gt;&lt;td&gt;foreignKey&lt;br&gt;&lt;/td&gt;&lt;/tr&gt;&lt;tr&gt;&lt;td&gt;&lt;/td&gt;&lt;td&gt;название&lt;br&gt;тех.место&lt;br&gt;ед. оборудования&lt;br&gt;документация&lt;br&gt;устройство&lt;br&gt;&lt;br&gt;&lt;br&gt;&lt;br&gt;&lt;br&gt;&lt;br&gt;&lt;br&gt;&lt;/td&gt;&lt;/tr&gt;&lt;/tbody&gt;&lt;/table&gt;" style="verticalAlign=top;align=left;overflow=fill;html=1;rounded=0;shadow=0;comic=0;labelBackgroundColor=none;strokeWidth=1;fontFamily=Verdana;fontSize=12;fillColor=#ffcd28;strokeColor=#d79b00;gradientColor=#ffa500;" parent="1" vertex="1">
                    <mxGeometry x="30" y="472.5" width="180" height="137.5" as="geometry"/>
                </mxCell>
                <mxCell id="Kqv4kzfCjA-99ceuHCYo-6" value="&lt;div style=&quot;text-align: center; box-sizing: border-box; width: 100%; background: rgb(228, 228, 228); padding: 2px;&quot;&gt;&lt;b&gt;тех. место&lt;/b&gt;&lt;/div&gt;&lt;table style=&quot;width:100%;font-size:1em;&quot; cellpadding=&quot;2&quot; cellspacing=&quot;0&quot;&gt;&lt;tbody&gt;&lt;tr&gt;&lt;td&gt;PK&lt;/td&gt;&lt;td&gt;uniqueId&lt;/td&gt;&lt;/tr&gt;&lt;tr&gt;&lt;td&gt;FK1&lt;/td&gt;&lt;td&gt;foreignKey&lt;/td&gt;&lt;/tr&gt;&lt;tr&gt;&lt;td&gt;&lt;/td&gt;&lt;td&gt;название&lt;br&gt;идент.номер(id)&lt;br&gt;отделы&lt;br&gt;&lt;br&gt;&lt;br&gt;&lt;br&gt;&lt;/td&gt;&lt;/tr&gt;&lt;/tbody&gt;&lt;/table&gt;" style="verticalAlign=top;align=left;overflow=fill;html=1;rounded=0;shadow=0;comic=0;labelBackgroundColor=none;strokeWidth=1;fontFamily=Verdana;fontSize=12;fillColor=#ffcd28;strokeColor=#d79b00;gradientColor=#ffa500;" parent="1" vertex="1">
                    <mxGeometry x="30" y="330" width="180" height="107.5" as="geometry"/>
                </mxCell>
                <mxCell id="Kqv4kzfCjA-99ceuHCYo-7" value="&lt;div style=&quot;text-align: center; box-sizing: border-box; width: 100%; background: rgb(228, 228, 228); padding: 2px;&quot;&gt;&lt;b&gt;файлы документов&lt;/b&gt;&lt;/div&gt;&lt;table style=&quot;width:100%;font-size:1em;&quot; cellpadding=&quot;2&quot; cellspacing=&quot;0&quot;&gt;&lt;tbody&gt;&lt;tr&gt;&lt;td&gt;PK&lt;/td&gt;&lt;td&gt;uniqueId&lt;/td&gt;&lt;/tr&gt;&lt;tr&gt;&lt;td&gt;FK1&lt;/td&gt;&lt;td&gt;foreignKey&lt;/td&gt;&lt;/tr&gt;&lt;tr&gt;&lt;td&gt;&lt;/td&gt;&lt;td&gt;название&lt;br&gt;тип файла&lt;br&gt;файл&lt;br&gt;&lt;br&gt;&lt;br&gt;&lt;br&gt;&lt;br&gt;&lt;br&gt;&lt;/td&gt;&lt;/tr&gt;&lt;/tbody&gt;&lt;/table&gt;" style="verticalAlign=top;align=left;overflow=fill;html=1;rounded=0;shadow=0;comic=0;labelBackgroundColor=none;strokeWidth=1;fontFamily=Verdana;fontSize=12;fillColor=#ffcd28;strokeColor=#d79b00;gradientColor=#ffa500;" parent="1" vertex="1">
                    <mxGeometry x="1120" y="452.5" width="180" height="110" as="geometry"/>
                </mxCell>
                <mxCell id="Kqv4kzfCjA-99ceuHCYo-8" value="" style="edgeStyle=orthogonalEdgeStyle;html=1;endArrow=ERoneToMany;startArrow=ERmandOne;labelBackgroundColor=none;fontFamily=Verdana;fontSize=12;align=left;strokeColor=#182E3E;fontColor=#1A1A1A;exitX=0.5;exitY=1;exitDx=0;exitDy=0;" parent="1" source="Kqv4kzfCjA-99ceuHCYo-3" edge="1">
                    <mxGeometry width="100" height="100" relative="1" as="geometry">
                        <mxPoint x="120" y="180" as="sourcePoint"/>
                        <mxPoint x="120" y="210" as="targetPoint"/>
                    </mxGeometry>
                </mxCell>
                <mxCell id="Kqv4kzfCjA-99ceuHCYo-9" value="" style="edgeStyle=orthogonalEdgeStyle;html=1;endArrow=ERoneToMany;startArrow=ERmandOne;labelBackgroundColor=none;fontFamily=Verdana;fontSize=12;align=left;strokeColor=#182E3E;fontColor=#1A1A1A;entryX=0.5;entryY=0;entryDx=0;entryDy=0;exitX=0.5;exitY=1;exitDx=0;exitDy=0;" parent="1" source="Kqv4kzfCjA-99ceuHCYo-4" target="Kqv4kzfCjA-99ceuHCYo-6" edge="1">
                    <mxGeometry width="100" height="100" relative="1" as="geometry">
                        <mxPoint x="120" y="300" as="sourcePoint"/>
                        <mxPoint x="130" y="220" as="targetPoint"/>
                    </mxGeometry>
                </mxCell>
                <mxCell id="Kqv4kzfCjA-99ceuHCYo-10" value="" style="edgeStyle=orthogonalEdgeStyle;html=1;endArrow=ERoneToMany;startArrow=ERmandOne;labelBackgroundColor=none;fontFamily=Verdana;fontSize=12;align=left;strokeColor=#182E3E;fontColor=#1A1A1A;entryX=0.5;entryY=0;entryDx=0;entryDy=0;" parent="1" source="Kqv4kzfCjA-99ceuHCYo-6" target="Kqv4kzfCjA-99ceuHCYo-5" edge="1">
                    <mxGeometry width="100" height="100" relative="1" as="geometry">
                        <mxPoint x="119.70000000000005" y="392.5" as="sourcePoint"/>
                        <mxPoint x="119.70000000000005" y="432.5" as="targetPoint"/>
                    </mxGeometry>
                </mxCell>
                <mxCell id="Kqv4kzfCjA-99ceuHCYo-11" value="" style="edgeStyle=orthogonalEdgeStyle;html=1;endArrow=ERoneToMany;startArrow=ERmandOne;labelBackgroundColor=none;fontFamily=Verdana;fontSize=12;align=left;strokeColor=#6F0000;fontColor=#1A1A1A;exitX=0;exitY=0.545;exitDx=0;exitDy=0;exitPerimeter=0;fillColor=#a20025;" parent="1" source="Kqv4kzfCjA-99ceuHCYo-2" edge="1">
                    <mxGeometry width="100" height="100" relative="1" as="geometry">
                        <mxPoint x="240.00000000000023" y="542.5" as="sourcePoint"/>
                        <mxPoint x="210" y="527.5" as="targetPoint"/>
                        <Array as="points">
                            <mxPoint x="300" y="145"/>
                            <mxPoint x="300" y="528"/>
                        </Array>
                    </mxGeometry>
                </mxCell>
                <mxCell id="Kqv4kzfCjA-99ceuHCYo-12" value="" style="edgeStyle=orthogonalEdgeStyle;html=1;endArrow=ERoneToMany;startArrow=ERmandOne;labelBackgroundColor=none;fontFamily=Verdana;fontSize=12;align=left;exitX=0;exitY=0.5;strokeColor=#005700;fontColor=#1A1A1A;exitDx=0;exitDy=0;entryX=1;entryY=0.5;entryDx=0;entryDy=0;fillColor=#008a00;" parent="1" source="Kqv4kzfCjA-99ceuHCYo-1" target="Kqv4kzfCjA-99ceuHCYo-4" edge="1">
                    <mxGeometry width="100" height="100" relative="1" as="geometry">
                        <mxPoint x="250" y="72.5" as="sourcePoint"/>
                        <mxPoint x="210" y="187.5" as="targetPoint"/>
                    </mxGeometry>
                </mxCell>
                <mxCell id="Kqv4kzfCjA-99ceuHCYo-13" value="&lt;div style=&quot;text-align: center; box-sizing: border-box; width: 100%; background: rgb(228, 228, 228); padding: 2px;&quot;&gt;&lt;b&gt;ABAC&lt;/b&gt;&lt;/div&gt;&lt;table style=&quot;width:100%;font-size:1em;&quot; cellpadding=&quot;2&quot; cellspacing=&quot;0&quot;&gt;&lt;tbody&gt;&lt;tr&gt;&lt;td&gt;PK&lt;/td&gt;&lt;td&gt;uniqueId&lt;/td&gt;&lt;/tr&gt;&lt;tr&gt;&lt;td&gt;FK1&lt;/td&gt;&lt;td&gt;foreignKey&lt;/td&gt;&lt;/tr&gt;&lt;tr&gt;&lt;td&gt;&lt;/td&gt;&lt;td&gt;&lt;br&gt;&lt;br&gt;&lt;br&gt;&lt;br&gt;&lt;br&gt;&lt;br&gt;&lt;/td&gt;&lt;/tr&gt;&lt;/tbody&gt;&lt;/table&gt;" style="verticalAlign=top;align=left;overflow=fill;html=1;rounded=0;shadow=0;comic=0;labelBackgroundColor=none;strokeWidth=1;fontFamily=Verdana;fontSize=12;fillColor=#ffcd28;strokeColor=#d79b00;gradientColor=#ffa500;" parent="1" vertex="1">
                    <mxGeometry x="600" y="200" width="180" height="57.5" as="geometry"/>
                </mxCell>
                <mxCell id="Kqv4kzfCjA-99ceuHCYo-16" value="" style="edgeStyle=orthogonalEdgeStyle;html=1;endArrow=ERoneToMany;startArrow=ERmandOne;labelBackgroundColor=none;fontFamily=Verdana;fontSize=12;align=left;exitX=0.5;exitY=1;entryX=0.5;entryY=0;strokeColor=#182E3E;fontColor=#1A1A1A;entryDx=0;entryDy=0;exitDx=0;exitDy=0;" parent="1" source="Kqv4kzfCjA-99ceuHCYo-13" target="Kqv4kzfCjA-99ceuHCYo-1" edge="1">
                    <mxGeometry width="100" height="100" relative="1" as="geometry">
                        <mxPoint x="870" y="282.5" as="sourcePoint"/>
                        <mxPoint x="760" y="292.5" as="targetPoint"/>
                    </mxGeometry>
                </mxCell>
                <mxCell id="Kqv4kzfCjA-99ceuHCYo-19" value="&lt;div style=&quot;text-align: center; box-sizing: border-box; width: 100%; background: rgb(228, 228, 228); padding: 2px;&quot;&gt;&lt;b&gt;типы документов&lt;/b&gt;&lt;/div&gt;&lt;table style=&quot;width:100%;font-size:1em;&quot; cellpadding=&quot;2&quot; cellspacing=&quot;0&quot;&gt;&lt;tbody&gt;&lt;tr&gt;&lt;td&gt;PK&lt;/td&gt;&lt;td&gt;uniqueId&lt;/td&gt;&lt;/tr&gt;&lt;tr&gt;&lt;td&gt;FK1&lt;/td&gt;&lt;td&gt;foreignKey&lt;/td&gt;&lt;/tr&gt;&lt;tr&gt;&lt;td&gt;&lt;/td&gt;&lt;td&gt;название&lt;br&gt;форма&lt;br&gt;файл&lt;br&gt;вложение&lt;br&gt;&lt;br&gt;&lt;br&gt;&lt;br&gt;&lt;br&gt;&lt;br&gt;&lt;br&gt;&lt;/td&gt;&lt;/tr&gt;&lt;/tbody&gt;&lt;/table&gt;" style="verticalAlign=top;align=left;overflow=fill;html=1;rounded=0;shadow=0;comic=0;labelBackgroundColor=none;strokeWidth=1;fontFamily=Verdana;fontSize=12;fillColor=#ffcd28;strokeColor=#d79b00;gradientColor=#ffa500;" parent="1" vertex="1">
                    <mxGeometry x="1120" y="250" width="180" height="120" as="geometry"/>
                </mxCell>
                <mxCell id="Kqv4kzfCjA-99ceuHCYo-20" value="&lt;div style=&quot;text-align: center; box-sizing: border-box; width: 100%; background: rgb(228, 228, 228); padding: 2px;&quot;&gt;&lt;b&gt;вложения&lt;/b&gt;&lt;/div&gt;&lt;table style=&quot;width:100%;font-size:1em;&quot; cellpadding=&quot;2&quot; cellspacing=&quot;0&quot;&gt;&lt;tbody&gt;&lt;tr&gt;&lt;td&gt;PK&lt;/td&gt;&lt;td&gt;uniqueId&lt;/td&gt;&lt;/tr&gt;&lt;tr&gt;&lt;td&gt;FK1&lt;/td&gt;&lt;td&gt;foreignKey&lt;/td&gt;&lt;/tr&gt;&lt;tr&gt;&lt;td&gt;&lt;/td&gt;&lt;td&gt;название&lt;br&gt;тип вложения&lt;br&gt;&lt;br&gt;&lt;br&gt;&lt;br&gt;&lt;br&gt;&lt;br&gt;&lt;br&gt;&lt;br&gt;&lt;/td&gt;&lt;/tr&gt;&lt;/tbody&gt;&lt;/table&gt;" style="verticalAlign=top;align=left;overflow=fill;html=1;rounded=0;shadow=0;comic=0;labelBackgroundColor=none;strokeWidth=1;fontFamily=Verdana;fontSize=12;fillColor=#ffcd28;strokeColor=#d79b00;gradientColor=#ffa500;" parent="1" vertex="1">
                    <mxGeometry x="1120" y="640" width="180" height="90" as="geometry"/>
                </mxCell>
                <mxCell id="Kqv4kzfCjA-99ceuHCYo-21" value="&lt;div style=&quot;text-align: center; box-sizing: border-box; width: 100%; background: rgb(228, 228, 228); padding: 2px;&quot;&gt;&lt;b&gt;типы вложений&lt;/b&gt;&lt;/div&gt;&lt;table style=&quot;width:100%;font-size:1em;&quot; cellpadding=&quot;2&quot; cellspacing=&quot;0&quot;&gt;&lt;tbody&gt;&lt;tr&gt;&lt;td&gt;PK&lt;/td&gt;&lt;td&gt;uniqueId&lt;/td&gt;&lt;/tr&gt;&lt;tr&gt;&lt;td&gt;FK1&lt;/td&gt;&lt;td&gt;foreignKey&lt;/td&gt;&lt;/tr&gt;&lt;tr&gt;&lt;td&gt;&lt;/td&gt;&lt;td&gt;название&lt;br&gt;файлы&lt;br&gt;&lt;br&gt;&lt;br&gt;&lt;br&gt;&lt;br&gt;&lt;br&gt;&lt;br&gt;&lt;br&gt;&lt;/td&gt;&lt;/tr&gt;&lt;/tbody&gt;&lt;/table&gt;" style="verticalAlign=top;align=left;overflow=fill;html=1;rounded=0;shadow=0;comic=0;labelBackgroundColor=none;strokeWidth=1;fontFamily=Verdana;fontSize=12;fillColor=#ffcd28;strokeColor=#d79b00;gradientColor=#ffa500;" parent="1" vertex="1">
                    <mxGeometry x="1120" y="827" width="180" height="90" as="geometry"/>
                </mxCell>
                <mxCell id="Kqv4kzfCjA-99ceuHCYo-22" value="&lt;div style=&quot;text-align: center; box-sizing: border-box; width: 100%; background: rgb(228, 228, 228); padding: 2px;&quot;&gt;&lt;b&gt;файлы вложений&lt;/b&gt;&lt;/div&gt;&lt;table style=&quot;width:100%;font-size:1em;&quot; cellpadding=&quot;2&quot; cellspacing=&quot;0&quot;&gt;&lt;tbody&gt;&lt;tr&gt;&lt;td&gt;PK&lt;/td&gt;&lt;td&gt;uniqueId&lt;/td&gt;&lt;/tr&gt;&lt;tr&gt;&lt;td&gt;FK1&lt;/td&gt;&lt;td&gt;foreignKey&lt;/td&gt;&lt;/tr&gt;&lt;tr&gt;&lt;td&gt;&lt;/td&gt;&lt;td&gt;название&lt;br&gt;тип файла&lt;br&gt;файл&lt;br&gt;&lt;br&gt;&lt;br&gt;&lt;br&gt;&lt;br&gt;&lt;br&gt;&lt;/td&gt;&lt;/tr&gt;&lt;/tbody&gt;&lt;/table&gt;" style="verticalAlign=top;align=left;overflow=fill;html=1;rounded=0;shadow=0;comic=0;labelBackgroundColor=none;strokeWidth=1;fontFamily=Verdana;fontSize=12;fillColor=#ffcd28;strokeColor=#d79b00;gradientColor=#ffa500;" parent="1" vertex="1">
                    <mxGeometry x="1120" y="980" width="180" height="110" as="geometry"/>
                </mxCell>
                <mxCell id="Kqv4kzfCjA-99ceuHCYo-23" value="" style="edgeStyle=orthogonalEdgeStyle;html=1;endArrow=ERoneToMany;startArrow=ERmandOne;labelBackgroundColor=none;fontFamily=Verdana;fontSize=12;align=left;strokeColor=#182E3E;fontColor=#1A1A1A;exitX=0.5;exitY=0;exitDx=0;exitDy=0;entryX=0.5;entryY=1;entryDx=0;entryDy=0;" parent="1" source="Kqv4kzfCjA-99ceuHCYo-19" target="Kqv4kzfCjA-99ceuHCYo-2" edge="1">
                    <mxGeometry width="100" height="100" relative="1" as="geometry">
                        <mxPoint x="1080" y="531.55" as="sourcePoint"/>
                        <mxPoint x="1220" y="190" as="targetPoint"/>
                    </mxGeometry>
                </mxCell>
                <mxCell id="Kqv4kzfCjA-99ceuHCYo-25" value="" style="edgeStyle=orthogonalEdgeStyle;html=1;endArrow=ERoneToMany;startArrow=ERmandOne;labelBackgroundColor=none;fontFamily=Verdana;fontSize=12;align=left;strokeColor=#182E3E;fontColor=#1A1A1A;entryX=0.5;entryY=1;entryDx=0;entryDy=0;exitX=0.5;exitY=0;exitDx=0;exitDy=0;" parent="1" source="Kqv4kzfCjA-99ceuHCYo-7" target="Kqv4kzfCjA-99ceuHCYo-19" edge="1">
                    <mxGeometry width="100" height="100" relative="1" as="geometry">
                        <mxPoint x="1540" y="527.5" as="sourcePoint"/>
                        <mxPoint x="1492.7" y="527.6199999999999" as="targetPoint"/>
                    </mxGeometry>
                </mxCell>
                <mxCell id="Kqv4kzfCjA-99ceuHCYo-26" value="" style="edgeStyle=orthogonalEdgeStyle;html=1;endArrow=ERoneToMany;startArrow=ERmandOne;labelBackgroundColor=none;fontFamily=Verdana;fontSize=12;align=left;strokeColor=#182E3E;fontColor=#1A1A1A;entryX=0.5;entryY=1;entryDx=0;entryDy=0;exitX=0.5;exitY=0;exitDx=0;exitDy=0;" parent="1" source="Kqv4kzfCjA-99ceuHCYo-21" target="Kqv4kzfCjA-99ceuHCYo-20" edge="1">
                    <mxGeometry width="100" height="100" relative="1" as="geometry">
                        <mxPoint x="1130" y="705" as="sourcePoint"/>
                        <mxPoint x="1082.7" y="705.1199999999999" as="targetPoint"/>
                    </mxGeometry>
                </mxCell>
                <mxCell id="Kqv4kzfCjA-99ceuHCYo-27" value="" style="edgeStyle=orthogonalEdgeStyle;html=1;endArrow=ERoneToMany;startArrow=ERmandOne;labelBackgroundColor=none;fontFamily=Verdana;fontSize=12;align=left;strokeColor=#182E3E;fontColor=#1A1A1A;exitX=0.5;exitY=0;exitDx=0;exitDy=0;entryX=0.5;entryY=1;entryDx=0;entryDy=0;" parent="1" source="Kqv4kzfCjA-99ceuHCYo-22" target="Kqv4kzfCjA-99ceuHCYo-21" edge="1">
                    <mxGeometry width="100" height="100" relative="1" as="geometry">
                        <mxPoint x="1360" y="705" as="sourcePoint"/>
                        <mxPoint x="1210" y="940" as="targetPoint"/>
                    </mxGeometry>
                </mxCell>
                <mxCell id="EtECLFkrUgJrlY4Pyp2R-1" value="&lt;div style=&quot;text-align: center; box-sizing: border-box; width: 100%; background: rgb(228, 228, 228); padding: 2px;&quot;&gt;&lt;b&gt;устройства&lt;/b&gt;&lt;/div&gt;&lt;table style=&quot;width:100%;font-size:1em;&quot; cellpadding=&quot;2&quot; cellspacing=&quot;0&quot;&gt;&lt;tbody&gt;&lt;tr&gt;&lt;td&gt;PK&lt;/td&gt;&lt;td&gt;uniqueId&lt;/td&gt;&lt;/tr&gt;&lt;tr&gt;&lt;td&gt;FK1&lt;/td&gt;&lt;td&gt;foreignKey&lt;br&gt;&lt;/td&gt;&lt;/tr&gt;&lt;tr&gt;&lt;td&gt;&lt;/td&gt;&lt;td&gt;количество&lt;br&gt;элемент&lt;br&gt;&lt;br&gt;&lt;br&gt;&lt;br&gt;&lt;br&gt;&lt;br&gt;&lt;br&gt;&lt;br&gt;&lt;br&gt;&lt;/td&gt;&lt;/tr&gt;&lt;/tbody&gt;&lt;/table&gt;" style="verticalAlign=top;align=left;overflow=fill;html=1;rounded=0;shadow=0;comic=0;labelBackgroundColor=none;strokeWidth=1;fontFamily=Verdana;fontSize=12;fillColor=#ffcd28;strokeColor=#d79b00;gradientColor=#ffa500;" parent="1" vertex="1">
                    <mxGeometry x="30" y="660" width="180" height="90" as="geometry"/>
                </mxCell>
                <mxCell id="EtECLFkrUgJrlY4Pyp2R-2" value="&lt;div style=&quot;text-align: center; box-sizing: border-box; width: 100%; background: rgb(228, 228, 228); padding: 2px;&quot;&gt;&lt;b&gt;элементы устройств&lt;/b&gt;&lt;/div&gt;&lt;table style=&quot;width:100%;font-size:1em;&quot; cellpadding=&quot;2&quot; cellspacing=&quot;0&quot;&gt;&lt;tbody&gt;&lt;tr&gt;&lt;td&gt;PK&lt;/td&gt;&lt;td&gt;uniqueId&lt;/td&gt;&lt;/tr&gt;&lt;tr&gt;&lt;td&gt;FK1&lt;/td&gt;&lt;td&gt;foreignKey&lt;br&gt;&lt;/td&gt;&lt;/tr&gt;&lt;tr&gt;&lt;td&gt;&lt;/td&gt;&lt;td&gt;название&lt;br&gt;id&lt;br&gt;вложение&lt;br&gt;&lt;br&gt;&lt;br&gt;&lt;br&gt;&lt;br&gt;&lt;br&gt;&lt;br&gt;&lt;br&gt;&lt;/td&gt;&lt;/tr&gt;&lt;/tbody&gt;&lt;/table&gt;" style="verticalAlign=top;align=left;overflow=fill;html=1;rounded=0;shadow=0;comic=0;labelBackgroundColor=none;strokeWidth=1;fontFamily=Verdana;fontSize=12;fillColor=#ffcd28;strokeColor=#d79b00;gradientColor=#ffa500;" parent="1" vertex="1">
                    <mxGeometry x="30" y="790" width="180" height="110" as="geometry"/>
                </mxCell>
                <mxCell id="EtECLFkrUgJrlY4Pyp2R-3" value="&lt;div style=&quot;text-align: center; box-sizing: border-box; width: 100%; background: rgb(228, 228, 228); padding: 2px;&quot;&gt;&lt;b&gt;вложения элементов&lt;/b&gt;&lt;/div&gt;&lt;table style=&quot;width:100%;font-size:1em;&quot; cellpadding=&quot;2&quot; cellspacing=&quot;0&quot;&gt;&lt;tbody&gt;&lt;tr&gt;&lt;td&gt;PK&lt;/td&gt;&lt;td&gt;uniqueId&lt;/td&gt;&lt;/tr&gt;&lt;tr&gt;&lt;td&gt;FK1&lt;/td&gt;&lt;td&gt;foreignKey&lt;br&gt;&lt;/td&gt;&lt;/tr&gt;&lt;tr&gt;&lt;td&gt;&lt;/td&gt;&lt;td&gt;название&lt;br&gt;файл&lt;br&gt;&lt;br&gt;&lt;br&gt;&lt;br&gt;&lt;br&gt;&lt;br&gt;&lt;br&gt;&lt;br&gt;&lt;/td&gt;&lt;/tr&gt;&lt;/tbody&gt;&lt;/table&gt;" style="verticalAlign=top;align=left;overflow=fill;html=1;rounded=0;shadow=0;comic=0;labelBackgroundColor=none;strokeWidth=1;fontFamily=Verdana;fontSize=12;fillColor=#ffcd28;strokeColor=#d79b00;gradientColor=#ffa500;" parent="1" vertex="1">
                    <mxGeometry x="30" y="940" width="180" height="90" as="geometry"/>
                </mxCell>
                <mxCell id="EtECLFkrUgJrlY4Pyp2R-4" value="&lt;div style=&quot;text-align: center; box-sizing: border-box; width: 100%; background: rgb(228, 228, 228); padding: 2px;&quot;&gt;&lt;b&gt;файлы элементов&lt;/b&gt;&lt;/div&gt;&lt;table style=&quot;width:100%;font-size:1em;&quot; cellpadding=&quot;2&quot; cellspacing=&quot;0&quot;&gt;&lt;tbody&gt;&lt;tr&gt;&lt;td&gt;PK&lt;/td&gt;&lt;td&gt;uniqueId&lt;/td&gt;&lt;/tr&gt;&lt;tr&gt;&lt;td&gt;FK1&lt;/td&gt;&lt;td&gt;foreignKey&lt;br&gt;&lt;/td&gt;&lt;/tr&gt;&lt;tr&gt;&lt;td&gt;&lt;/td&gt;&lt;td&gt;название&lt;br&gt;тип файла&lt;br&gt;файл&lt;br&gt;&lt;br&gt;&lt;br&gt;&lt;br&gt;&lt;br&gt;&lt;br&gt;&lt;br&gt;&lt;br&gt;&lt;/td&gt;&lt;/tr&gt;&lt;/tbody&gt;&lt;/table&gt;" style="verticalAlign=top;align=left;overflow=fill;html=1;rounded=0;shadow=0;comic=0;labelBackgroundColor=none;strokeWidth=1;fontFamily=Verdana;fontSize=12;fillColor=#ffcd28;strokeColor=#d79b00;gradientColor=#ffa500;" parent="1" vertex="1">
                    <mxGeometry x="30" y="1100" width="180" height="100" as="geometry"/>
                </mxCell>
                <mxCell id="EtECLFkrUgJrlY4Pyp2R-8" value="" style="edgeStyle=orthogonalEdgeStyle;html=1;endArrow=ERoneToMany;startArrow=ERmandOne;labelBackgroundColor=none;fontFamily=Verdana;fontSize=12;align=left;strokeColor=#182E3E;fontColor=#1A1A1A;entryX=0.5;entryY=0;entryDx=0;entryDy=0;exitX=0.5;exitY=1;exitDx=0;exitDy=0;" parent="1" source="Kqv4kzfCjA-99ceuHCYo-5" target="EtECLFkrUgJrlY4Pyp2R-1" edge="1">
                    <mxGeometry width="100" height="100" relative="1" as="geometry">
                        <mxPoint x="130" y="390" as="sourcePoint"/>
                        <mxPoint x="130" y="482.5" as="targetPoint"/>
                    </mxGeometry>
                </mxCell>
                <mxCell id="EtECLFkrUgJrlY4Pyp2R-9" value="" style="edgeStyle=orthogonalEdgeStyle;html=1;endArrow=ERoneToMany;startArrow=ERmandOne;labelBackgroundColor=none;fontFamily=Verdana;fontSize=12;align=left;strokeColor=#182E3E;fontColor=#1A1A1A;entryX=0.5;entryY=0;entryDx=0;entryDy=0;exitX=0.5;exitY=1;exitDx=0;exitDy=0;" parent="1" source="EtECLFkrUgJrlY4Pyp2R-1" target="EtECLFkrUgJrlY4Pyp2R-2" edge="1">
                    <mxGeometry width="100" height="100" relative="1" as="geometry">
                        <mxPoint x="320" y="720" as="sourcePoint"/>
                        <mxPoint x="320" y="770" as="targetPoint"/>
                    </mxGeometry>
                </mxCell>
                <mxCell id="EtECLFkrUgJrlY4Pyp2R-10" value="" style="edgeStyle=orthogonalEdgeStyle;html=1;endArrow=ERoneToMany;startArrow=ERmandOne;labelBackgroundColor=none;fontFamily=Verdana;fontSize=12;align=left;strokeColor=#182E3E;fontColor=#1A1A1A;entryX=0.5;entryY=0;entryDx=0;entryDy=0;exitX=0.5;exitY=1;exitDx=0;exitDy=0;" parent="1" source="EtECLFkrUgJrlY4Pyp2R-2" target="EtECLFkrUgJrlY4Pyp2R-3" edge="1">
                    <mxGeometry width="100" height="100" relative="1" as="geometry">
                        <mxPoint x="310" y="860" as="sourcePoint"/>
                        <mxPoint x="310" y="900" as="targetPoint"/>
                    </mxGeometry>
                </mxCell>
                <mxCell id="EtECLFkrUgJrlY4Pyp2R-11" value="" style="edgeStyle=orthogonalEdgeStyle;html=1;endArrow=ERoneToMany;startArrow=ERmandOne;labelBackgroundColor=none;fontFamily=Verdana;fontSize=12;align=left;strokeColor=#182E3E;fontColor=#1A1A1A;entryX=0.5;entryY=0;entryDx=0;entryDy=0;" parent="1" source="EtECLFkrUgJrlY4Pyp2R-3" target="EtECLFkrUgJrlY4Pyp2R-4" edge="1">
                    <mxGeometry width="100" height="100" relative="1" as="geometry">
                        <mxPoint x="290" y="1110" as="sourcePoint"/>
                        <mxPoint x="290" y="1150" as="targetPoint"/>
                    </mxGeometry>
                </mxCell>
                <mxCell id="EtECLFkrUgJrlY4Pyp2R-12" value="" style="edgeStyle=orthogonalEdgeStyle;html=1;endArrow=ERoneToMany;startArrow=ERmandOne;labelBackgroundColor=none;fontFamily=Verdana;fontSize=12;align=left;exitX=0;exitY=0.5;strokeColor=#2D7600;fontColor=#1A1A1A;exitDx=0;exitDy=0;entryX=1;entryY=0.5;entryDx=0;entryDy=0;fillColor=#60a917;" parent="1" source="Kqv4kzfCjA-99ceuHCYo-1" target="Kqv4kzfCjA-99ceuHCYo-6" edge="1">
                    <mxGeometry width="100" height="100" relative="1" as="geometry">
                        <mxPoint x="610" y="393.75" as="sourcePoint"/>
                        <mxPoint x="220" y="265" as="targetPoint"/>
                    </mxGeometry>
                </mxCell>
                <mxCell id="EtECLFkrUgJrlY4Pyp2R-13" value="" style="edgeStyle=orthogonalEdgeStyle;html=1;endArrow=ERoneToMany;startArrow=ERmandOne;labelBackgroundColor=none;fontFamily=Verdana;fontSize=12;align=left;exitX=0;exitY=0.5;strokeColor=#005700;fontColor=#1A1A1A;exitDx=0;exitDy=0;entryX=1;entryY=0.5;entryDx=0;entryDy=0;fillColor=#008a00;" parent="1" source="Kqv4kzfCjA-99ceuHCYo-1" target="Kqv4kzfCjA-99ceuHCYo-5" edge="1">
                    <mxGeometry width="100" height="100" relative="1" as="geometry">
                        <mxPoint x="610" y="393.75" as="sourcePoint"/>
                        <mxPoint x="220" y="393.75" as="targetPoint"/>
                    </mxGeometry>
                </mxCell>
                <mxCell id="EtECLFkrUgJrlY4Pyp2R-18" value="" style="edgeStyle=orthogonalEdgeStyle;html=1;endArrow=ERoneToMany;startArrow=ERmandOne;labelBackgroundColor=none;fontFamily=Verdana;fontSize=12;align=left;exitX=0;exitY=0.5;strokeColor=#005700;fontColor=#1A1A1A;exitDx=0;exitDy=0;entryX=1;entryY=0.5;entryDx=0;entryDy=0;fillColor=#008a00;" parent="1" source="Kqv4kzfCjA-99ceuHCYo-1" target="Kqv4kzfCjA-99ceuHCYo-3" edge="1">
                    <mxGeometry width="100" height="100" relative="1" as="geometry">
                        <mxPoint x="610" y="393.75" as="sourcePoint"/>
                        <mxPoint x="220" y="265" as="targetPoint"/>
                    </mxGeometry>
                </mxCell>
                <mxCell id="EtECLFkrUgJrlY4Pyp2R-19" value="" style="edgeStyle=orthogonalEdgeStyle;html=1;endArrow=ERoneToMany;startArrow=ERmandOne;labelBackgroundColor=none;fontFamily=Verdana;fontSize=12;align=left;strokeColor=#005700;fontColor=#1A1A1A;entryX=1;entryY=0.5;entryDx=0;entryDy=0;fillColor=#008a00;" parent="1" source="Kqv4kzfCjA-99ceuHCYo-1" target="EtECLFkrUgJrlY4Pyp2R-1" edge="1">
                    <mxGeometry width="100" height="100" relative="1" as="geometry">
                        <mxPoint x="610" y="393.75" as="sourcePoint"/>
                        <mxPoint x="220" y="551.25" as="targetPoint"/>
                    </mxGeometry>
                </mxCell>
                <mxCell id="EtECLFkrUgJrlY4Pyp2R-20" value="" style="edgeStyle=orthogonalEdgeStyle;html=1;endArrow=ERoneToMany;startArrow=ERmandOne;labelBackgroundColor=none;fontFamily=Verdana;fontSize=12;align=left;strokeColor=#005700;fontColor=#1A1A1A;entryX=1;entryY=0.5;entryDx=0;entryDy=0;fillColor=#008a00;" parent="1" source="Kqv4kzfCjA-99ceuHCYo-1" target="EtECLFkrUgJrlY4Pyp2R-2" edge="1">
                    <mxGeometry width="100" height="100" relative="1" as="geometry">
                        <mxPoint x="610.0000000000002" y="393.75" as="sourcePoint"/>
                        <mxPoint x="220" y="551.25" as="targetPoint"/>
                    </mxGeometry>
                </mxCell>
                <mxCell id="EtECLFkrUgJrlY4Pyp2R-21" value="" style="edgeStyle=orthogonalEdgeStyle;html=1;endArrow=ERoneToMany;startArrow=ERmandOne;labelBackgroundColor=none;fontFamily=Verdana;fontSize=12;align=left;strokeColor=#005700;fontColor=#1A1A1A;entryX=1;entryY=0.5;entryDx=0;entryDy=0;fillColor=#008a00;" parent="1" source="Kqv4kzfCjA-99ceuHCYo-1" target="EtECLFkrUgJrlY4Pyp2R-3" edge="1">
                    <mxGeometry width="100" height="100" relative="1" as="geometry">
                        <mxPoint x="610" y="393.8333333333335" as="sourcePoint"/>
                        <mxPoint x="220" y="855" as="targetPoint"/>
                    </mxGeometry>
                </mxCell>
                <mxCell id="EtECLFkrUgJrlY4Pyp2R-22" value="" style="edgeStyle=orthogonalEdgeStyle;html=1;endArrow=ERoneToMany;startArrow=ERmandOne;labelBackgroundColor=none;fontFamily=Verdana;fontSize=12;align=left;strokeColor=#005700;fontColor=#1A1A1A;entryX=1;entryY=0.5;entryDx=0;entryDy=0;fillColor=#008a00;exitX=0;exitY=0.5;exitDx=0;exitDy=0;" parent="1" source="Kqv4kzfCjA-99ceuHCYo-1" target="EtECLFkrUgJrlY4Pyp2R-4" edge="1">
                    <mxGeometry width="100" height="100" relative="1" as="geometry">
                        <mxPoint x="610" y="393.8333333333335" as="sourcePoint"/>
                        <mxPoint x="220" y="995" as="targetPoint"/>
                    </mxGeometry>
                </mxCell>
                <mxCell id="EtECLFkrUgJrlY4Pyp2R-25" value="" style="edgeStyle=orthogonalEdgeStyle;html=1;endArrow=ERoneToMany;startArrow=ERmandOne;labelBackgroundColor=none;fontFamily=Verdana;fontSize=12;align=left;strokeColor=#182E3E;fontColor=#1A1A1A;entryX=1;entryY=0.5;entryDx=0;entryDy=0;exitX=1;exitY=0.5;exitDx=0;exitDy=0;" parent="1" source="Kqv4kzfCjA-99ceuHCYo-20" target="Kqv4kzfCjA-99ceuHCYo-19" edge="1">
                    <mxGeometry width="100" height="100" relative="1" as="geometry">
                        <mxPoint x="1610" y="447.5" as="sourcePoint"/>
                        <mxPoint x="1610" y="370" as="targetPoint"/>
                        <Array as="points">
                            <mxPoint x="1400" y="685"/>
                            <mxPoint x="1400" y="310"/>
                        </Array>
                    </mxGeometry>
                </mxCell>
                <mxCell id="EtECLFkrUgJrlY4Pyp2R-26" value="" style="edgeStyle=orthogonalEdgeStyle;html=1;endArrow=ERoneToMany;startArrow=ERmandOne;labelBackgroundColor=none;fontFamily=Verdana;fontSize=12;align=left;exitX=0;exitY=0.75;strokeColor=#005700;fontColor=#1A1A1A;exitDx=0;exitDy=0;entryX=1;entryY=0.5;entryDx=0;entryDy=0;fillColor=#008a00;" parent="1" source="Kqv4kzfCjA-99ceuHCYo-2" target="Kqv4kzfCjA-99ceuHCYo-1" edge="1">
                    <mxGeometry width="100" height="100" relative="1" as="geometry">
                        <mxPoint x="610" y="393.75" as="sourcePoint"/>
                        <mxPoint x="220" y="140" as="targetPoint"/>
                    </mxGeometry>
                </mxCell>
                <mxCell id="EtECLFkrUgJrlY4Pyp2R-27" value="" style="edgeStyle=orthogonalEdgeStyle;html=1;endArrow=ERoneToMany;startArrow=ERmandOne;labelBackgroundColor=none;fontFamily=Verdana;fontSize=12;align=left;exitX=0;exitY=0.5;strokeColor=#005700;fontColor=#1A1A1A;exitDx=0;exitDy=0;entryX=1;entryY=0.5;entryDx=0;entryDy=0;fillColor=#008a00;" parent="1" source="Kqv4kzfCjA-99ceuHCYo-19" target="Kqv4kzfCjA-99ceuHCYo-1" edge="1">
                    <mxGeometry width="100" height="100" relative="1" as="geometry">
                        <mxPoint x="1130" y="175" as="sourcePoint"/>
                        <mxPoint x="790" y="393.75" as="targetPoint"/>
                    </mxGeometry>
                </mxCell>
                <mxCell id="EtECLFkrUgJrlY4Pyp2R-29" value="" style="edgeStyle=orthogonalEdgeStyle;html=1;endArrow=ERoneToMany;startArrow=ERmandOne;labelBackgroundColor=none;fontFamily=Verdana;fontSize=12;align=left;exitX=0.002;exitY=0.602;strokeColor=#005700;fontColor=#1A1A1A;exitDx=0;exitDy=0;entryX=1;entryY=0.5;entryDx=0;entryDy=0;fillColor=#008a00;exitPerimeter=0;" parent="1" source="Kqv4kzfCjA-99ceuHCYo-7" target="Kqv4kzfCjA-99ceuHCYo-1" edge="1">
                    <mxGeometry width="100" height="100" relative="1" as="geometry">
                        <mxPoint x="1130" y="320" as="sourcePoint"/>
                        <mxPoint x="790" y="393.75" as="targetPoint"/>
                    </mxGeometry>
                </mxCell>
                <mxCell id="EtECLFkrUgJrlY4Pyp2R-30" value="" style="edgeStyle=orthogonalEdgeStyle;html=1;endArrow=ERoneToMany;startArrow=ERmandOne;labelBackgroundColor=none;fontFamily=Verdana;fontSize=12;align=left;exitX=0;exitY=0.5;strokeColor=#005700;fontColor=#1A1A1A;exitDx=0;exitDy=0;entryX=1;entryY=0.5;entryDx=0;entryDy=0;fillColor=#008a00;" parent="1" source="Kqv4kzfCjA-99ceuHCYo-20" target="Kqv4kzfCjA-99ceuHCYo-1" edge="1">
                    <mxGeometry width="100" height="100" relative="1" as="geometry">
                        <mxPoint x="1130.3599999999997" y="528.72" as="sourcePoint"/>
                        <mxPoint x="790" y="393.75" as="targetPoint"/>
                    </mxGeometry>
                </mxCell>
                <mxCell id="EtECLFkrUgJrlY4Pyp2R-31" value="" style="edgeStyle=orthogonalEdgeStyle;html=1;endArrow=ERoneToMany;startArrow=ERmandOne;labelBackgroundColor=none;fontFamily=Verdana;fontSize=12;align=left;exitX=0;exitY=0.5;strokeColor=#005700;fontColor=#1A1A1A;exitDx=0;exitDy=0;entryX=1;entryY=0.5;entryDx=0;entryDy=0;fillColor=#008a00;" parent="1" source="Kqv4kzfCjA-99ceuHCYo-21" target="Kqv4kzfCjA-99ceuHCYo-1" edge="1">
                    <mxGeometry width="100" height="100" relative="1" as="geometry">
                        <mxPoint x="1130" y="695" as="sourcePoint"/>
                        <mxPoint x="790" y="393.75" as="targetPoint"/>
                    </mxGeometry>
                </mxCell>
                <mxCell id="EtECLFkrUgJrlY4Pyp2R-32" value="" style="edgeStyle=orthogonalEdgeStyle;html=1;endArrow=ERoneToMany;startArrow=ERmandOne;labelBackgroundColor=none;fontFamily=Verdana;fontSize=12;align=left;exitX=0;exitY=0.5;strokeColor=#005700;fontColor=#1A1A1A;exitDx=0;exitDy=0;entryX=1;entryY=0.5;entryDx=0;entryDy=0;fillColor=#008a00;" parent="1" source="Kqv4kzfCjA-99ceuHCYo-22" target="Kqv4kzfCjA-99ceuHCYo-1" edge="1">
                    <mxGeometry width="100" height="100" relative="1" as="geometry">
                        <mxPoint x="1130" y="882" as="sourcePoint"/>
                        <mxPoint x="790" y="393.75" as="targetPoint"/>
                    </mxGeometry>
                </mxCell>
            </root>
        </mxGraphModel>
    </diagram>
</mxfile>